# xmcd
#
# Track frame offsets:
#	150
#	18287
#	36448
#	52113
#	70466
#	91267
#	110436
#	128933
#	145870
#	163935
#	184895
#	202591
#
# Disc length: 2918 seconds
#
# Revision: 0
# Processed by: cddbd v1.5.2PL0 Copyright (c) Steve Scherf et al.
# Submitted via: audiograbber 1.83.01
#
DISCID=ab0b640c
DTITLE=Mike West - Dem Leben Traun
DYEAR=2012
DGENRE=Country
TTITLE0=Dem Leben Traun
TTITLE1=Denn Du Bist Liebe
TTITLE2=Für Alle Zeit
TTITLE3=Ich Glaub An Dich
TTITLE4=Du Bist Das Licht
TTITLE5=Regen
TTITLE6=Wenn Die Liebe Vergeht
TTITLE7=Nur Einmal
TTITLE8=Mit Dir Geh Ich Bis Ans Ende Dieser Welt
TTITLE9=Leben Ohne Dich
TTITLE10=Wohin Wird Deine Reise Gehn
TTITLE11=Wenn Ich Dich Liebe
EXTD=
EXTT0=
EXTT1=
EXTT2=
EXTT3=
EXTT4=
EXTT5=
EXTT6=
EXTT7=
EXTT8=
EXTT9=
EXTT10=
EXTT11=
PLAYORDER=
